# xmcd CD database file
#
# Track frame offsets:
#	150
#	13670
#	31589
#	42054
#	57224
#	75376
#	90152
#	108883
#	123066
#	140259
#	154344
#
# Disc length: 2337 seconds
#
# Revision: 0
# Processed by: cddbd v1.5.2PL0 Copyright (c) Steve Scherf et al.
# Submitted via: CDex 1.70beta2
#
DISCID=6d091f0b
DTITLE=Johnathon, Michael - USA - Walden - The Earth Song Collection
DYEAR=1900
DGENRE=Country
TTITLE0=Walden - The Ballad of Thoreau
TTITLE1=In the Woods
TTITLE2=Sunrise
TTITLE3=Henry's Lullabye
TTITLE4=Heritage
TTITLE5=Colorado Trail
TTITLE6=Garden of Eden
TTITLE7=Sittin' On Top of the World
TTITLE8=The Cabin
TTITLE9=Simple Life
TTITLE10=Young and Alone
EXTD=
EXTT0=
EXTT1=
EXTT2=
EXTT3=
EXTT4=
EXTT5=
EXTT6=
EXTT7=
EXTT8=
EXTT9=
EXTT10=
PLAYORDER=
